<?xml version="1.0" encoding="us-ascii" standalone="no"?><svg xmlns="http://www.w3.org/2000/svg" xmlns:xlink="http://www.w3.org/1999/xlink" contentStyleType="text/css" height="1247px" preserveAspectRatio="none" style="width:1925px;height:1247px;background:#FFFFFF;" version="1.1" viewBox="0 0 1925 1247" width="1925px" zoomAndPan="magnify"><defs/><g><g id="elem_floatingNote"><path d="M1059.5,6 L1059.5,138.2266 L1500.5,138.2266 L1500.5,16 L1490.5,6 L1059.5,6 " fill="#ADD8E6" style="stroke:#181818;stroke-width:0.5;"/><path d="M1490.5,6 L1490.5,16 L1500.5,16 L1490.5,6 " fill="#ADD8E6" style="stroke:#181818;stroke-width:1.0;"/><text fill="#000000" font-family="sans-serif" font-size="25" font-weight="bold" lengthAdjust="spacing" textLength="226" x="1065.5" y="34.2056">In this diagram:</text><text fill="#000000" font-family="sans-serif" font-size="20" lengthAdjust="spacing" textLength="268" x="1065.5" y="58.666">- Point3 = Eigen::Vector3d</text><text fill="#000000" font-family="sans-serif" font-size="20" lengthAdjust="spacing" textLength="276" x="1065.5" y="81.9473">- Matrix4 = Eigen::Matrix4d</text><text fill="#000000" font-family="sans-serif" font-size="20" lengthAdjust="spacing" textLength="414" x="1065.5" y="105.2285">- Dotted line between classes means that</text><text fill="#000000" font-family="sans-serif" font-size="13" lengthAdjust="spacing" textLength="8" x="1065.5" y="130.1606">&#160;&#160;</text><text fill="#000000" font-family="sans-serif" font-size="20" lengthAdjust="spacing" textLength="289" x="1073.5" y="128.5098">one class is using other class</text></g><!--class Application--><g id="elem_Application"><rect codeLine="16" fill="#F1F1F1" height="129.4844" id="Application" rx="2.5" ry="2.5" style="stroke:#181818;stroke-width:0.5;" width="162" x="862" y="7.5"/><ellipse cx="901.75" cy="23.5" fill="#ADD1B2" rx="11" ry="11" style="stroke:#181818;stroke-width:1.0;"/><path d="M904.7188,29.1406 Q904.1406,29.4375 903.5,29.5781 Q902.8594,29.7344 902.1563,29.7344 Q899.6563,29.7344 898.3281,28.0938 Q897.0156,26.4375 897.0156,23.3125 Q897.0156,20.1875 898.3281,18.5313 Q899.6563,16.875 902.1563,16.875 Q902.8594,16.875 903.5,17.0313 Q904.1563,17.1875 904.7188,17.4844 L904.7188,20.2031 Q904.0938,19.625 903.5,19.3594 Q902.9063,19.0781 902.2813,19.0781 Q900.9375,19.0781 900.25,20.1563 Q899.5625,21.2188 899.5625,23.3125 Q899.5625,25.4063 900.25,26.4844 Q900.9375,27.5469 902.2813,27.5469 Q902.9063,27.5469 903.5,27.2813 Q904.0938,27 904.7188,26.4219 L904.7188,29.1406 Z " fill="#000000"/><text fill="#000000" font-family="sans-serif" font-size="14" lengthAdjust="spacing" textLength="75" x="921.25" y="28.3467">Application</text><line style="stroke:#181818;stroke-width:0.5;" x1="863" x2="1023" y1="39.5" y2="39.5"/><rect fill="none" height="6" style="stroke:#C82930;stroke-width:1.0;" width="6" x="870" y="50.1484"/><text fill="#000000" font-family="sans-serif" font-size="14" lengthAdjust="spacing" textLength="136" x="882" y="56.4951">Renderer renderer_</text><rect fill="none" height="6" style="stroke:#C82930;stroke-width:1.0;" width="6" x="870" y="66.4453"/><text fill="#000000" font-family="sans-serif" font-size="14" lengthAdjust="spacing" textLength="115" x="882" y="72.792">Camera camera_</text><rect fill="none" height="6" style="stroke:#C82930;stroke-width:1.0;" width="6" x="870" y="82.7422"/><text fill="#000000" font-family="sans-serif" font-size="14" lengthAdjust="spacing" textLength="87" x="882" y="89.0889">World world_</text><line style="stroke:#181818;stroke-width:0.5;" x1="863" x2="1023" y1="96.3906" y2="96.3906"/><ellipse cx="873" cy="110.0391" fill="#84BE84" rx="3" ry="3" style="stroke:#038048;stroke-width:1.0;"/><text fill="#000000" font-family="sans-serif" font-size="14" lengthAdjust="spacing" textLength="85" x="882" y="113.3857">Application()</text><ellipse cx="873" cy="126.3359" fill="#84BE84" rx="3" ry="3" style="stroke:#038048;stroke-width:1.0;"/><text fill="#000000" font-family="sans-serif" font-size="14" lengthAdjust="spacing" textLength="65" x="882" y="129.6826">void run()</text></g><path d="M583,47 L583,87.2656 A0,0 0 0 0 583,87.2656 L827,87.2656 A0,0 0 0 0 827,87.2656 L827,71.1328 L866,108.5391 L827,63.1328 L827,57 L817,47 L583,47 A0,0 0 0 0 583,47 " fill="#FEFFDD" style="stroke:#181818;stroke-width:0.5;"/><path d="M817,47 L817,57 L827,57 L817,47 " fill="#FEFFDD" style="stroke:#181818;stroke-width:0.5;"/><text fill="#000000" font-family="sans-serif" font-size="13" lengthAdjust="spacing" textLength="219" x="589" y="64.0669">Creates predetermined scene and</text><text fill="#000000" font-family="sans-serif" font-size="13" lengthAdjust="spacing" textLength="132" x="589" y="79.1997">initializes subclasses</text><!--class Renderer--><g id="elem_Renderer"><rect codeLine="31" fill="#F1F1F1" height="64.2969" id="Renderer" rx="2.5" ry="2.5" style="stroke:#181818;stroke-width:0.5;" width="270" x="808" y="198"/><ellipse cx="906.25" cy="214" fill="#ADD1B2" rx="11" ry="11" style="stroke:#181818;stroke-width:1.0;"/><path d="M909.2188,219.6406 Q908.6406,219.9375 908,220.0781 Q907.3594,220.2344 906.6563,220.2344 Q904.1563,220.2344 902.8281,218.5938 Q901.5156,216.9375 901.5156,213.8125 Q901.5156,210.6875 902.8281,209.0313 Q904.1563,207.375 906.6563,207.375 Q907.3594,207.375 908,207.5313 Q908.6563,207.6875 909.2188,207.9844 L909.2188,210.7031 Q908.5938,210.125 908,209.8594 Q907.4063,209.5781 906.7813,209.5781 Q905.4375,209.5781 904.75,210.6563 Q904.0625,211.7188 904.0625,213.8125 Q904.0625,215.9063 904.75,216.9844 Q905.4375,218.0469 906.7813,218.0469 Q907.4063,218.0469 908,217.7813 Q908.5938,217.5 909.2188,216.9219 L909.2188,219.6406 Z " fill="#000000"/><text fill="#000000" font-family="sans-serif" font-size="14" lengthAdjust="spacing" textLength="65" x="926.75" y="218.8467">Renderer</text><line style="stroke:#181818;stroke-width:0.5;" x1="809" x2="1077" y1="230" y2="230"/><line style="stroke:#181818;stroke-width:0.5;" x1="809" x2="1077" y1="238" y2="238"/><ellipse cx="819" cy="251.6484" fill="#84BE84" rx="3" ry="3" style="stroke:#038048;stroke-width:1.0;"/><text fill="#000000" font-family="sans-serif" font-size="14" lengthAdjust="spacing" textLength="244" x="828" y="254.9951">Image renderImage(Camera, World)</text></g><g id="elem_GMN7"><path d="M1113.5,210 L1113.5,226 L1078.06,230 L1113.5,234 L1113.5,250.2656 A0,0 0 0 0 1113.5,250.2656 L1372.5,250.2656 A0,0 0 0 0 1372.5,250.2656 L1372.5,220 L1362.5,210 L1113.5,210 A0,0 0 0 0 1113.5,210 " fill="#FEFFDD" style="stroke:#181818;stroke-width:0.5;"/><path d="M1362.5,210 L1362.5,220 L1372.5,220 L1362.5,210 " fill="#FEFFDD" style="stroke:#181818;stroke-width:0.5;"/><text fill="#000000" font-family="sans-serif" font-size="13" font-style="italic" lengthAdjust="spacing" textLength="59" x="1119.5" y="227.0669">Renderer</text><text fill="#000000" font-family="sans-serif" font-size="13" lengthAdjust="spacing" textLength="175" x="1182.5" y="227.0669">is responsible for producing</text><text fill="#000000" font-family="sans-serif" font-size="13" lengthAdjust="spacing" textLength="200" x="1119.5" y="242.1997">image for Application to display</text></g><!--class World--><g id="elem_World"><rect codeLine="42" fill="#F1F1F1" height="113.1875" id="World" rx="2.5" ry="2.5" style="stroke:#181818;stroke-width:0.5;" width="222" x="1272" y="511"/><ellipse cx="1359.25" cy="527" fill="#ADD1B2" rx="11" ry="11" style="stroke:#181818;stroke-width:1.0;"/><path d="M1362.2188,532.6406 Q1361.6406,532.9375 1361,533.0781 Q1360.3594,533.2344 1359.6563,533.2344 Q1357.1563,533.2344 1355.8281,531.5938 Q1354.5156,529.9375 1354.5156,526.8125 Q1354.5156,523.6875 1355.8281,522.0313 Q1357.1563,520.375 1359.6563,520.375 Q1360.3594,520.375 1361,520.5313 Q1361.6563,520.6875 1362.2188,520.9844 L1362.2188,523.7031 Q1361.5938,523.125 1361,522.8594 Q1360.4063,522.5781 1359.7813,522.5781 Q1358.4375,522.5781 1357.75,523.6563 Q1357.0625,524.7188 1357.0625,526.8125 Q1357.0625,528.9063 1357.75,529.9844 Q1358.4375,531.0469 1359.7813,531.0469 Q1360.4063,531.0469 1361,530.7813 Q1361.5938,530.5 1362.2188,529.9219 L1362.2188,532.6406 Z " fill="#000000"/><text fill="#000000" font-family="sans-serif" font-size="14" lengthAdjust="spacing" textLength="39" x="1379.75" y="531.8467">World</text><line style="stroke:#181818;stroke-width:0.5;" x1="1273" x2="1493" y1="543" y2="543"/><rect fill="none" height="6" style="stroke:#C82930;stroke-width:1.0;" width="6" x="1280" y="553.6484"/><text fill="#000000" font-family="sans-serif" font-size="14" lengthAdjust="spacing" textLength="196" x="1292" y="559.9951">container&lt;Object&gt; objects_</text><line style="stroke:#181818;stroke-width:0.5;" x1="1273" x2="1493" y1="567.2969" y2="567.2969"/><ellipse cx="1283" cy="580.9453" fill="#84BE84" rx="3" ry="3" style="stroke:#038048;stroke-width:1.0;"/><text fill="#000000" font-family="sans-serif" font-size="14" lengthAdjust="spacing" textLength="126" x="1292" y="584.292">addObject(Object)</text><ellipse cx="1283" cy="597.2422" fill="#84BE84" rx="3" ry="3" style="stroke:#038048;stroke-width:1.0;"/><text fill="#000000" font-family="sans-serif" font-size="14" lengthAdjust="spacing" textLength="49" x="1292" y="600.5889">begin()</text><ellipse cx="1283" cy="613.5391" fill="#84BE84" rx="3" ry="3" style="stroke:#038048;stroke-width:1.0;"/><text fill="#000000" font-family="sans-serif" font-size="14" lengthAdjust="spacing" textLength="37" x="1292" y="616.8857">end()</text></g><g id="elem_GMN11"><path d="M1529.5,524.5 L1529.5,563.5 L1494.2,567.5 L1529.5,571.5 L1529.5,610.1641 A0,0 0 0 0 1529.5,610.1641 L1814.5,610.1641 A0,0 0 0 0 1814.5,610.1641 L1814.5,534.5 L1804.5,524.5 L1529.5,524.5 A0,0 0 0 0 1529.5,524.5 " fill="#FEFFDD" style="stroke:#181818;stroke-width:0.5;"/><path d="M1804.5,524.5 L1804.5,534.5 L1814.5,534.5 L1804.5,524.5 " fill="#FEFFDD" style="stroke:#181818;stroke-width:0.5;"/><text fill="#000000" font-family="sans-serif" font-size="13" font-style="italic" lengthAdjust="spacing" textLength="37" x="1535.5" y="541.5669">World</text><text fill="#000000" font-family="sans-serif" font-size="13" lengthAdjust="spacing" textLength="156" x="1576.5" y="541.5669">is responsible for storing</text><text fill="#000000" font-family="sans-serif" font-size="13" lengthAdjust="spacing" textLength="196" x="1535.5" y="556.6997">all objects in the render scene.</text><text fill="#000000" font-family="sans-serif" font-size="13" lengthAdjust="spacing" textLength="4" x="1535.5" y="571.8325">&#160;</text><text fill="#000000" font-family="sans-serif" font-size="13" lengthAdjust="spacing" textLength="260" x="1535.5" y="586.9653">- Iterating over World object allows to get</text><text fill="#000000" font-family="sans-serif" font-size="13" lengthAdjust="spacing" textLength="155" x="1543.5" y="602.0981">all triangles in the scene</text></g><!--class Object--><g id="elem_Object"><rect codeLine="59" fill="#F1F1F1" height="96.8906" id="Object" rx="2.5" ry="2.5" style="stroke:#181818;stroke-width:0.5;" width="336" x="1215" y="759.5"/><ellipse cx="1356.25" cy="775.5" fill="#ADD1B2" rx="11" ry="11" style="stroke:#181818;stroke-width:1.0;"/><path d="M1359.2188,781.1406 Q1358.6406,781.4375 1358,781.5781 Q1357.3594,781.7344 1356.6563,781.7344 Q1354.1563,781.7344 1352.8281,780.0938 Q1351.5156,778.4375 1351.5156,775.3125 Q1351.5156,772.1875 1352.8281,770.5313 Q1354.1563,768.875 1356.6563,768.875 Q1357.3594,768.875 1358,769.0313 Q1358.6563,769.1875 1359.2188,769.4844 L1359.2188,772.2031 Q1358.5938,771.625 1358,771.3594 Q1357.4063,771.0781 1356.7813,771.0781 Q1355.4375,771.0781 1354.75,772.1563 Q1354.0625,773.2188 1354.0625,775.3125 Q1354.0625,777.4063 1354.75,778.4844 Q1355.4375,779.5469 1356.7813,779.5469 Q1357.4063,779.5469 1358,779.2813 Q1358.5938,779 1359.2188,778.4219 L1359.2188,781.1406 Z " fill="#000000"/><text fill="#000000" font-family="sans-serif" font-size="14" lengthAdjust="spacing" textLength="45" x="1376.75" y="780.3467">Object</text><line style="stroke:#181818;stroke-width:0.5;" x1="1216" x2="1550" y1="791.5" y2="791.5"/><rect fill="none" height="6" style="stroke:#C82930;stroke-width:1.0;" width="6" x="1223" y="802.1484"/><text fill="#000000" font-family="sans-serif" font-size="14" lengthAdjust="spacing" textLength="214" x="1235" y="808.4951">container&lt;Triangle&gt; triangles_</text><line style="stroke:#181818;stroke-width:0.5;" x1="1216" x2="1550" y1="815.7969" y2="815.7969"/><ellipse cx="1226" cy="829.4453" fill="#84BE84" rx="3" ry="3" style="stroke:#038048;stroke-width:1.0;"/><text fill="#000000" font-family="sans-serif" font-size="14" lengthAdjust="spacing" textLength="310" x="1235" y="832.792">Object(container&lt;Triangle&gt;, Point3 position)</text><ellipse cx="1226" cy="845.7422" fill="#84BE84" rx="3" ry="3" style="stroke:#038048;stroke-width:1.0;"/><text fill="#000000" font-family="sans-serif" font-size="14" lengthAdjust="spacing" textLength="287" x="1235" y="849.0889">container&lt;Triangle&gt; getTriangles() const</text></g><g id="elem_GMN15"><path d="M1586,795.5 L1586,804 L1551.28,808 L1586,812 L1586,820.6328 A0,0 0 0 0 1586,820.6328 L1918,820.6328 A0,0 0 0 0 1918,820.6328 L1918,805.5 L1908,795.5 L1586,795.5 A0,0 0 0 0 1586,795.5 " fill="#FEFFDD" style="stroke:#181818;stroke-width:0.5;"/><path d="M1908,795.5 L1908,805.5 L1918,805.5 L1908,795.5 " fill="#FEFFDD" style="stroke:#181818;stroke-width:0.5;"/><text fill="#000000" font-family="sans-serif" font-size="13" font-style="italic" lengthAdjust="spacing" textLength="41" x="1592" y="812.5669">Object</text><text fill="#000000" font-family="sans-serif" font-size="13" lengthAdjust="spacing" textLength="266" x="1637" y="812.5669">is a represents render object in the scene</text></g><!--class Triangle--><g id="elem_Triangle"><rect codeLine="72" fill="#F1F1F1" height="64.2969" id="Triangle" rx="2.5" ry="2.5" style="stroke:#181818;stroke-width:0.5;" width="147" x="1309.5" y="995.5"/><ellipse cx="1351.5" cy="1011.5" fill="#F1F1F1" rx="11" ry="11" style="stroke:#181818;stroke-width:1.0;"/><path d="M1350.9844,1012.0625 Q1349.125,1011.3594 1348.4688,1010.5938 Q1347.8281,1009.8125 1347.8281,1008.5 Q1347.8281,1006.8125 1348.9063,1005.8438 Q1349.9844,1004.875 1351.8594,1004.875 Q1352.7188,1004.875 1353.5625,1005.0781 Q1354.4219,1005.2656 1355.2656,1005.6563 L1355.2656,1008.0469 Q1354.4844,1007.4844 1353.6563,1007.2031 Q1352.8438,1006.9063 1352.0469,1006.9063 Q1351.1719,1006.9063 1350.6875,1007.2656 Q1350.2188,1007.625 1350.2188,1008.2813 Q1350.2188,1008.7969 1350.5625,1009.1406 Q1350.9063,1009.4688 1352,1009.875 L1353.0625,1010.2813 Q1354.5469,1010.8281 1355.25,1011.7344 Q1355.9688,1012.6406 1355.9688,1014.0156 Q1355.9688,1015.8906 1354.8594,1016.8125 Q1353.75,1017.7344 1351.5,1017.7344 Q1350.5781,1017.7344 1349.6563,1017.5156 Q1348.7344,1017.2969 1347.875,1016.875 L1347.875,1014.3438 Q1348.8438,1015.0313 1349.7656,1015.375 Q1350.6875,1015.7188 1351.5781,1015.7188 Q1352.4844,1015.7188 1352.9844,1015.3125 Q1353.4844,1014.8906 1353.4844,1014.1563 Q1353.4844,1013.5938 1353.1406,1013.1875 Q1352.8125,1012.7656 1352.1875,1012.5156 L1350.9844,1012.0625 Z " fill="#000000"/><text fill="#000000" font-family="sans-serif" font-size="14" lengthAdjust="spacing" textLength="55" x="1371.5" y="1016.3467">Triangle</text><line style="stroke:#181818;stroke-width:0.5;" x1="1310.5" x2="1455.5" y1="1027.5" y2="1027.5"/><ellipse cx="1320.5" cy="1041.1484" fill="none" rx="3" ry="3" style="stroke:#038048;stroke-width:1.0;"/><text fill="#000000" font-family="sans-serif" font-size="14" lengthAdjust="spacing" textLength="121" x="1329.5" y="1044.4951">Vertex[3] vertices</text><line style="stroke:#181818;stroke-width:0.5;" x1="1310.5" x2="1455.5" y1="1051.7969" y2="1051.7969"/></g><g id="elem_GMN19"><path d="M1491.5,992 L1491.5,1023.5 L1456.63,1027.5 L1491.5,1031.5 L1491.5,1062.5313 A0,0 0 0 0 1491.5,1062.5313 L1780.5,1062.5313 A0,0 0 0 0 1780.5,1062.5313 L1780.5,1002 L1770.5,992 L1491.5,992 A0,0 0 0 0 1491.5,992 " fill="#FEFFDD" style="stroke:#181818;stroke-width:0.5;"/><path d="M1770.5,992 L1770.5,1002 L1780.5,1002 L1770.5,992 " fill="#FEFFDD" style="stroke:#181818;stroke-width:0.5;"/><text fill="#000000" font-family="sans-serif" font-size="13" font-style="italic" lengthAdjust="spacing" textLength="51" x="1497.5" y="1009.0669">Triangle</text><text fill="#000000" font-family="sans-serif" font-size="13" lengthAdjust="spacing" textLength="146" x="1552.5" y="1009.0669">is a rendering primitive</text><text fill="#000000" font-family="sans-serif" font-size="13" lengthAdjust="spacing" textLength="4" x="1497.5" y="1024.1997">&#160;</text><text fill="#000000" font-family="sans-serif" font-size="13" lengthAdjust="spacing" textLength="268" x="1497.5" y="1039.3325">- All objects in the scene are decomposed</text><text fill="#000000" font-family="sans-serif" font-size="13" lengthAdjust="spacing" textLength="83" x="1505.5" y="1054.4653">into triangles</text></g><!--class Vertex--><g id="elem_Vertex"><rect codeLine="85" fill="#F1F1F1" height="117.1875" id="Vertex" rx="2.5" ry="2.5" style="stroke:#181818;stroke-width:0.5;" width="298" x="1234" y="1123"/><ellipse cx="1356.75" cy="1139" fill="#F1F1F1" rx="11" ry="11" style="stroke:#181818;stroke-width:1.0;"/><path d="M1356.2344,1139.5625 Q1354.375,1138.8594 1353.7188,1138.0938 Q1353.0781,1137.3125 1353.0781,1136 Q1353.0781,1134.3125 1354.1563,1133.3438 Q1355.2344,1132.375 1357.1094,1132.375 Q1357.9688,1132.375 1358.8125,1132.5781 Q1359.6719,1132.7656 1360.5156,1133.1563 L1360.5156,1135.5469 Q1359.7344,1134.9844 1358.9063,1134.7031 Q1358.0938,1134.4063 1357.2969,1134.4063 Q1356.4219,1134.4063 1355.9375,1134.7656 Q1355.4688,1135.125 1355.4688,1135.7813 Q1355.4688,1136.2969 1355.8125,1136.6406 Q1356.1563,1136.9688 1357.25,1137.375 L1358.3125,1137.7813 Q1359.7969,1138.3281 1360.5,1139.2344 Q1361.2188,1140.1406 1361.2188,1141.5156 Q1361.2188,1143.3906 1360.1094,1144.3125 Q1359,1145.2344 1356.75,1145.2344 Q1355.8281,1145.2344 1354.9063,1145.0156 Q1353.9844,1144.7969 1353.125,1144.375 L1353.125,1141.8438 Q1354.0938,1142.5313 1355.0156,1142.875 Q1355.9375,1143.2188 1356.8281,1143.2188 Q1357.7344,1143.2188 1358.2344,1142.8125 Q1358.7344,1142.3906 1358.7344,1141.6563 Q1358.7344,1141.0938 1358.3906,1140.6875 Q1358.0625,1140.2656 1357.4375,1140.0156 L1356.2344,1139.5625 Z " fill="#000000"/><text fill="#000000" font-family="sans-serif" font-size="14" lengthAdjust="spacing" textLength="44" x="1377.25" y="1143.8467">Vertex</text><line style="stroke:#181818;stroke-width:0.5;" x1="1235" x2="1531" y1="1155" y2="1155"/><ellipse cx="1245" cy="1168.6484" fill="none" rx="3" ry="3" style="stroke:#038048;stroke-width:1.0;"/><text fill="#000000" font-family="sans-serif" font-size="14" lengthAdjust="spacing" textLength="103" x="1254" y="1171.9951">Point3 position</text><ellipse cx="1245" cy="1205.2422" fill="none" rx="3" ry="3" style="stroke:#038048;stroke-width:1.0;"/><text fill="#000000" font-family="sans-serif" font-size="14" lengthAdjust="spacing" textLength="96" x="1254" y="1208.5889">sf::Color color</text><line style="stroke:#181818;stroke-width:1.0;" x1="1235" x2="1327.5" y1="1187.4453" y2="1187.4453"/><text fill="#000000" font-family="sans-serif" font-size="14" lengthAdjust="spacing" textLength="111" x="1327.5" y="1191.792">Scalar attributes</text><line style="stroke:#181818;stroke-width:1.0;" x1="1438.5" x2="1531" y1="1187.4453" y2="1187.4453"/><line style="stroke:#181818;stroke-width:1.0;" x1="1235" x2="1531" y1="1215.8906" y2="1215.8906"/><ellipse cx="1245" cy="1229.5391" fill="#84BE84" rx="3" ry="3" style="stroke:#038048;stroke-width:1.0;"/><text fill="#000000" font-family="sans-serif" font-size="14" lengthAdjust="spacing" textLength="272" x="1254" y="1232.8857">interpolate(Vertex A, Vertex B, double t)</text></g><g id="elem_GMN23"><path d="M1567,1146 L1567,1177.5 L1532.31,1181.5 L1567,1185.5 L1567,1216.5313 A0,0 0 0 0 1567,1216.5313 L1851,1216.5313 A0,0 0 0 0 1851,1216.5313 L1851,1156 L1841,1146 L1567,1146 A0,0 0 0 0 1567,1146 " fill="#FEFFDD" style="stroke:#181818;stroke-width:0.5;"/><path d="M1841,1146 L1841,1156 L1851,1156 L1841,1146 " fill="#FEFFDD" style="stroke:#181818;stroke-width:0.5;"/><text fill="#000000" font-family="sans-serif" font-size="13" font-style="italic" lengthAdjust="spacing" textLength="43" x="1573" y="1163.0669">Vertex</text><text fill="#000000" font-family="sans-serif" font-size="13" lengthAdjust="spacing" textLength="199" x="1620" y="1163.0669">represents a vertex of Triangle.</text><text fill="#000000" font-family="sans-serif" font-size="13" lengthAdjust="spacing" textLength="4" x="1573" y="1178.1997">&#160;</text><text fill="#000000" font-family="sans-serif" font-size="13" lengthAdjust="spacing" textLength="259" x="1573" y="1193.3325">- Contains both position in 3D space and</text><text fill="#000000" font-family="sans-serif" font-size="13" lengthAdjust="spacing" textLength="223" x="1581" y="1208.4653">some attributes used for rendering</text></g><path d="M857.5,1133.5 L857.5,1219.1641 A0,0 0 0 0 857.5,1219.1641 L1198.5,1219.1641 A0,0 0 0 0 1198.5,1219.1641 L1198.5,1180.332 L1238,1228.0391 L1198.5,1172.332 L1198.5,1143.5 L1188.5,1133.5 L857.5,1133.5 A0,0 0 0 0 857.5,1133.5 " fill="#FEFFDD" style="stroke:#181818;stroke-width:0.5;"/><path d="M1188.5,1133.5 L1188.5,1143.5 L1198.5,1143.5 L1188.5,1133.5 " fill="#FEFFDD" style="stroke:#181818;stroke-width:0.5;"/><text fill="#000000" font-family="sans-serif" font-size="13" lengthAdjust="spacing" textLength="320" x="863.5" y="1150.5669">Creates Vertex corresponding to (1 - t) * A + t * B</text><text fill="#000000" font-family="sans-serif" font-size="13" lengthAdjust="spacing" textLength="4" x="863.5" y="1165.6997">&#160;</text><text fill="#000000" font-family="sans-serif" font-size="13" lengthAdjust="spacing" textLength="165" x="863.5" y="1180.8325">- t must be in range [0; 1]</text><text fill="#000000" font-family="sans-serif" font-size="13" lengthAdjust="spacing" textLength="286" x="863.5" y="1195.9653">- all scalar attributes are interpolated linearly</text><text fill="#000000" font-family="sans-serif" font-size="13" lengthAdjust="spacing" textLength="4" x="863.5" y="1211.0981">&#160;</text><!--class Camera--><g id="elem_Camera"><rect codeLine="110" fill="#F1F1F1" height="129.4844" id="Camera" rx="2.5" ry="2.5" style="stroke:#181818;stroke-width:0.5;" width="540" x="399" y="322"/><ellipse cx="638.25" cy="338" fill="#ADD1B2" rx="11" ry="11" style="stroke:#181818;stroke-width:1.0;"/><path d="M641.2188,343.6406 Q640.6406,343.9375 640,344.0781 Q639.3594,344.2344 638.6563,344.2344 Q636.1563,344.2344 634.8281,342.5938 Q633.5156,340.9375 633.5156,337.8125 Q633.5156,334.6875 634.8281,333.0313 Q636.1563,331.375 638.6563,331.375 Q639.3594,331.375 640,331.5313 Q640.6563,331.6875 641.2188,331.9844 L641.2188,334.7031 Q640.5938,334.125 640,333.8594 Q639.4063,333.5781 638.7813,333.5781 Q637.4375,333.5781 636.75,334.6563 Q636.0625,335.7188 636.0625,337.8125 Q636.0625,339.9063 636.75,340.9844 Q637.4375,342.0469 638.7813,342.0469 Q639.4063,342.0469 640,341.7813 Q640.5938,341.5 641.2188,340.9219 L641.2188,343.6406 Z " fill="#000000"/><text fill="#000000" font-family="sans-serif" font-size="14" lengthAdjust="spacing" textLength="53" x="658.75" y="342.8467">Camera</text><line style="stroke:#181818;stroke-width:0.5;" x1="400" x2="938" y1="354" y2="354"/><rect fill="none" height="6" style="stroke:#C82930;stroke-width:1.0;" width="6" x="407" y="364.6484"/><text fill="#000000" font-family="sans-serif" font-size="14" lengthAdjust="spacing" textLength="167" x="419" y="370.9951">Matrix4 movement_mat_</text><rect fill="none" height="6" style="stroke:#C82930;stroke-width:1.0;" width="6" x="407" y="380.9453"/><text fill="#000000" font-family="sans-serif" font-size="14" lengthAdjust="spacing" textLength="159" x="419" y="387.292">Matrix4 transform_mat_</text><line style="stroke:#181818;stroke-width:0.5;" x1="400" x2="938" y1="394.5938" y2="394.5938"/><ellipse cx="410" cy="408.2422" fill="#84BE84" rx="3" ry="3" style="stroke:#038048;stroke-width:1.0;"/><text fill="#000000" font-family="sans-serif" font-size="14" lengthAdjust="spacing" textLength="514" x="419" y="411.5889">container&lt;HTriangle&gt; transformWorldTriangles(const World&amp; world) const</text><rect fill="#F24D5C" height="6" style="stroke:#C82930;stroke-width:1.0;" width="6" x="407" y="421.5391"/><text fill="#000000" font-family="sans-serif" font-size="14" lengthAdjust="spacing" textLength="320" x="419" y="427.8857">HVertex transformVertex(const Vertex&amp;) const</text><rect fill="#F24D5C" height="6" style="stroke:#C82930;stroke-width:1.0;" width="6" x="407" y="437.8359"/><text fill="#000000" font-family="sans-serif" font-size="14" lengthAdjust="spacing" textLength="353" x="419" y="444.1826">HTriangle transformTriangle(const Triangle&amp;) const</text></g><g id="elem_GMN29"><path d="M974.5,359 L974.5,382.5 L939.27,386.5 L974.5,390.5 L974.5,414.3984 A0,0 0 0 0 974.5,414.3984 L1329.5,414.3984 A0,0 0 0 0 1329.5,414.3984 L1329.5,369 L1319.5,359 L974.5,359 A0,0 0 0 0 974.5,359 " fill="#FEFFDD" style="stroke:#181818;stroke-width:0.5;"/><path d="M1319.5,359 L1319.5,369 L1329.5,369 L1319.5,359 " fill="#FEFFDD" style="stroke:#181818;stroke-width:0.5;"/><text fill="#000000" font-family="sans-serif" font-size="13" font-style="italic" lengthAdjust="spacing" textLength="51" x="980.5" y="376.0669">Camera</text><text fill="#000000" font-family="sans-serif" font-size="13" lengthAdjust="spacing" textLength="246" x="1035.5" y="376.0669">is responsible for transorming Vertices</text><text fill="#000000" font-family="sans-serif" font-size="13" lengthAdjust="spacing" textLength="334" x="980.5" y="391.1997">from world-space into homogeneous camera-space.</text><text fill="#000000" font-family="sans-serif" font-size="13" lengthAdjust="spacing" textLength="4" x="980.5" y="406.3325">&#160;</text></g><path d="M6,326 L6,366.2656 A0,0 0 0 0 6,366.2656 L242,366.2656 A0,0 0 0 0 242,366.2656 L242,350.1328 L403,406.7422 L242,342.1328 L242,336 L232,326 L6,326 A0,0 0 0 0 6,326 " fill="#FEFFDD" style="stroke:#181818;stroke-width:0.5;"/><path d="M232,326 L232,336 L242,336 L232,326 " fill="#FEFFDD" style="stroke:#181818;stroke-width:0.5;"/><text fill="#000000" font-family="sans-serif" font-size="13" lengthAdjust="spacing" textLength="198" x="12" y="343.0669">Transforms all World's triangles</text><text fill="#000000" font-family="sans-serif" font-size="13" lengthAdjust="spacing" textLength="215" x="12" y="358.1997">into homogeneous camera space</text><path d="M6,376.2656 L6,401.3984 A0,0 0 0 0 6,401.3984 L364,401.3984 A0,0 0 0 0 364,401.3984 L364,394.2656 L403,423.0391 L364,386.2656 L364,386.2656 L354,376.2656 L6,376.2656 A0,0 0 0 0 6,376.2656 " fill="#FEFFDD" style="stroke:#181818;stroke-width:0.5;"/><path d="M354,376.2656 L354,386.2656 L364,386.2656 L354,376.2656 " fill="#FEFFDD" style="stroke:#181818;stroke-width:0.5;"/><text fill="#000000" font-family="sans-serif" font-size="13" lengthAdjust="spacing" textLength="337" x="12" y="393.3325">Transforms Vertex into homogeneous camera space</text><path d="M6,411.3984 L6,436.5313 A0,0 0 0 0 6,436.5313 L340,436.5313 A0,0 0 0 0 340,436.5313 L340,429.3984 L403,439.3359 L340,421.3984 L340,421.3984 L330,411.3984 L6,411.3984 A0,0 0 0 0 6,411.3984 " fill="#FEFFDD" style="stroke:#181818;stroke-width:0.5;"/><path d="M330,411.3984 L330,421.3984 L340,421.3984 L330,411.3984 " fill="#FEFFDD" style="stroke:#181818;stroke-width:0.5;"/><text fill="#000000" font-family="sans-serif" font-size="13" lengthAdjust="spacing" textLength="313" x="12" y="428.4653">Just calls transformVertex for 3 triangle's vertices</text><!--class HVertex--><g id="elem_HVertex"><rect codeLine="140" fill="#F1F1F1" height="247.5625" id="HVertex" rx="2.5" ry="2.5" style="stroke:#181818;stroke-width:0.5;" width="295" x="406.5" y="684"/><ellipse cx="522.75" cy="700" fill="#ADD1B2" rx="11" ry="11" style="stroke:#181818;stroke-width:1.0;"/><path d="M525.7188,705.6406 Q525.1406,705.9375 524.5,706.0781 Q523.8594,706.2344 523.1563,706.2344 Q520.6563,706.2344 519.3281,704.5938 Q518.0156,702.9375 518.0156,699.8125 Q518.0156,696.6875 519.3281,695.0313 Q520.6563,693.375 523.1563,693.375 Q523.8594,693.375 524.5,693.5313 Q525.1563,693.6875 525.7188,693.9844 L525.7188,696.7031 Q525.0938,696.125 524.5,695.8594 Q523.9063,695.5781 523.2813,695.5781 Q521.9375,695.5781 521.25,696.6563 Q520.5625,697.7188 520.5625,699.8125 Q520.5625,701.9063 521.25,702.9844 Q521.9375,704.0469 523.2813,704.0469 Q523.9063,704.0469 524.5,703.7813 Q525.0938,703.5 525.7188,702.9219 L525.7188,705.6406 Z " fill="#000000"/><text fill="#000000" font-family="sans-serif" font-size="14" lengthAdjust="spacing" textLength="54" x="543.25" y="704.8467">HVertex</text><line style="stroke:#181818;stroke-width:0.5;" x1="407.5" x2="700.5" y1="716" y2="716"/><rect fill="none" height="6" style="stroke:#C82930;stroke-width:1.0;" width="6" x="414.5" y="726.6484"/><text fill="#000000" font-family="sans-serif" font-size="14" lengthAdjust="spacing" textLength="126" x="426.5" y="732.9951">Point3 h_position_</text><rect fill="none" height="6" style="stroke:#C82930;stroke-width:1.0;" width="6" x="414.5" y="742.9453"/><text fill="#000000" font-family="sans-serif" font-size="14" lengthAdjust="spacing" textLength="141" x="426.5" y="749.292">double z_reciprocal_</text><rect fill="none" height="6" style="stroke:#C82930;stroke-width:1.0;" width="6" x="414.5" y="779.5391"/><text fill="#000000" font-family="sans-serif" font-size="14" lengthAdjust="spacing" textLength="103" x="426.5" y="785.8857">sf::Color color_</text><line style="stroke:#181818;stroke-width:1.0;stroke-dasharray:1.0,2.0;" x1="407.5" x2="498.5" y1="764.7422" y2="764.7422"/><text fill="#000000" font-family="sans-serif" font-size="14" lengthAdjust="spacing" textLength="111" x="498.5" y="769.0889">Scalar attributes</text><line style="stroke:#181818;stroke-width:1.0;stroke-dasharray:1.0,2.0;" x1="609.5" x2="700.5" y1="764.7422" y2="764.7422"/><ellipse cx="417.5" cy="819.1328" fill="#84BE84" rx="3" ry="3" style="stroke:#038048;stroke-width:1.0;"/><text fill="#000000" font-family="sans-serif" font-size="14" lengthAdjust="spacing" textLength="250" x="426.5" y="822.4795">HVertex(Point3 h_position, double z,</text><text fill="#000000" font-family="sans-serif" font-size="14" lengthAdjust="spacing" textLength="127" x="486.5" y="838.7764">scalar attributes...)</text><ellipse cx="417.5" cy="851.7266" fill="#84BE84" rx="3" ry="3" style="stroke:#038048;stroke-width:1.0;"/><text fill="#000000" font-family="sans-serif" font-size="14" lengthAdjust="spacing" textLength="74" x="426.5" y="855.0732">hPosition()</text><ellipse cx="417.5" cy="868.0234" fill="#84BE84" rx="3" ry="3" style="stroke:#038048;stroke-width:1.0;"/><text fill="#000000" font-family="sans-serif" font-size="14" lengthAdjust="spacing" textLength="133" x="426.5" y="871.3701">getScalarAttribute()</text><line style="stroke:#181818;stroke-width:1.0;" x1="407.5" x2="523.5" y1="801.3359" y2="801.3359"/><text fill="#000000" font-family="sans-serif" font-size="14" lengthAdjust="spacing" textLength="61" x="523.5" y="805.6826">Methods</text><line style="stroke:#181818;stroke-width:1.0;" x1="584.5" x2="700.5" y1="801.3359" y2="801.3359"/><ellipse cx="417.5" cy="904.6172" fill="#84BE84" rx="3" ry="3" style="stroke:#038048;stroke-width:1.0;"/><text fill="#000000" font-family="sans-serif" font-size="14" lengthAdjust="spacing" textLength="269" x="426.5" y="907.9639">friend interpolate(HVertex A, HVertex B,</text><text fill="#000000" font-family="sans-serif" font-size="14" lengthAdjust="spacing" textLength="62" x="546.5" y="924.2607">double t)</text><line style="stroke:#181818;stroke-width:1.0;" x1="407.5" x2="498.5" y1="886.8203" y2="886.8203"/><text fill="#000000" font-family="sans-serif" font-size="14" lengthAdjust="spacing" textLength="111" x="498.5" y="891.167">Friend functions</text><line style="stroke:#181818;stroke-width:1.0;" x1="609.5" x2="700.5" y1="886.8203" y2="886.8203"/></g><g id="elem_GMN35"><path d="M737,750 L737,804 L701.77,808 L737,812 L737,865.9297 A0,0 0 0 0 737,865.9297 L1155,865.9297 A0,0 0 0 0 1155,865.9297 L1155,760 L1145,750 L737,750 A0,0 0 0 0 737,750 " fill="#FEFFDD" style="stroke:#181818;stroke-width:0.5;"/><path d="M1145,750 L1145,760 L1155,760 L1145,750 " fill="#FEFFDD" style="stroke:#181818;stroke-width:0.5;"/><text fill="#000000" font-family="sans-serif" font-size="13" font-style="italic" lengthAdjust="spacing" textLength="53" x="743" y="767.0669">HVertex</text><text fill="#000000" font-family="sans-serif" font-size="13" lengthAdjust="spacing" textLength="244" x="800" y="767.0669">represents Vertex after transormation</text><text fill="#000000" font-family="sans-serif" font-size="13" lengthAdjust="spacing" textLength="214" x="743" y="782.1997">in Camera's homogeneous space</text><text fill="#000000" font-family="sans-serif" font-size="13" lengthAdjust="spacing" textLength="4" x="743" y="797.3325">&#160;</text><text fill="#000000" font-family="sans-serif" font-size="13" lengthAdjust="spacing" textLength="319" x="743" y="812.4653">- All coordinates of h_position_ are in range [-1; 1]</text><text fill="#000000" font-family="sans-serif" font-size="13" lengthAdjust="spacing" textLength="5" x="743" y="827.5981">-</text><text fill="#000000" font-family="sans-serif" font-size="13" font-weight="bold" lengthAdjust="spacing" textLength="376" x="752" y="827.5981">All scalar attributes are multiplied by z_reciprocal_</text><text fill="#000000" font-family="sans-serif" font-size="13" lengthAdjust="spacing" textLength="4" x="1128" y="827.5981">&#160;</text><text fill="#000000" font-family="sans-serif" font-size="13" lengthAdjust="spacing" textLength="267" x="751" y="842.731">for perspective correct linear interpolation</text><text fill="#000000" font-family="sans-serif" font-size="13" lengthAdjust="spacing" textLength="389" x="751" y="857.8638">Only exception: color_ (because it stored as triplet of uint8_t)</text></g><path d="M16.5,707.5 L16.5,732.6328 A0,0 0 0 0 16.5,732.6328 L364.5,732.6328 A0,0 0 0 0 364.5,732.6328 L364.5,725.5 L410.5,744.4453 L364.5,717.5 L364.5,717.5 L354.5,707.5 L16.5,707.5 A0,0 0 0 0 16.5,707.5 " fill="#FEFFDD" style="stroke:#181818;stroke-width:0.5;"/><path d="M354.5,707.5 L354.5,717.5 L364.5,717.5 L354.5,707.5 " fill="#FEFFDD" style="stroke:#181818;stroke-width:0.5;"/><text fill="#000000" font-family="sans-serif" font-size="13" lengthAdjust="spacing" textLength="106" x="22.5" y="724.5669">Reciprocal of the</text><text fill="#000000" font-family="sans-serif" font-size="13" font-weight="bold" lengthAdjust="spacing" textLength="55" x="132.5" y="724.5669">original</text><text fill="#000000" font-family="sans-serif" font-size="13" lengthAdjust="spacing" textLength="158" x="191.5" y="724.5669">z coordinate for a Vertex</text><path d="M16.5,742.6328 L16.5,767.7656 A0,0 0 0 0 16.5,767.7656 L225.5,767.7656 A0,0 0 0 0 225.5,767.7656 L225.5,760.6328 L410.5,817.6328 L225.5,752.6328 L225.5,752.6328 L215.5,742.6328 L16.5,742.6328 A0,0 0 0 0 16.5,742.6328 " fill="#FEFFDD" style="stroke:#181818;stroke-width:0.5;"/><path d="M215.5,742.6328 L215.5,752.6328 L225.5,752.6328 L215.5,742.6328 " fill="#FEFFDD" style="stroke:#181818;stroke-width:0.5;"/><text fill="#000000" font-family="sans-serif" font-size="13" lengthAdjust="spacing" textLength="188" x="22.5" y="759.6997">Creates HVertex with all rules</text><path d="M16.5,777.7656 L16.5,818.0313 A0,0 0 0 0 16.5,818.0313 L318.5,818.0313 A0,0 0 0 0 318.5,818.0313 L318.5,801.8984 L410.5,866.5234 L318.5,793.8984 L318.5,787.7656 L308.5,777.7656 L16.5,777.7656 A0,0 0 0 0 16.5,777.7656 " fill="#FEFFDD" style="stroke:#181818;stroke-width:0.5;"/><path d="M308.5,777.7656 L308.5,787.7656 L318.5,787.7656 L308.5,777.7656 " fill="#FEFFDD" style="stroke:#181818;stroke-width:0.5;"/><text fill="#000000" font-family="sans-serif" font-size="13" lengthAdjust="spacing" textLength="49" x="22.5" y="794.8325">Returns</text><text fill="#000000" font-family="sans-serif" font-size="13" font-weight="bold" lengthAdjust="spacing" textLength="84" x="75.5" y="794.8325">unmodified</text><text fill="#000000" font-family="sans-serif" font-size="13" lengthAdjust="spacing" textLength="97" x="163.5" y="794.8325">scalar attribute</text><text fill="#000000" font-family="sans-serif" font-size="13" lengthAdjust="spacing" textLength="281" x="22.5" y="809.9653">(i.e. without multiplification by z_reciprocal_)</text><path d="M16.5,828.0313 L16.5,898.5625 A0,0 0 0 0 16.5,898.5625 L371.5,898.5625 A0,0 0 0 0 371.5,898.5625 L371.5,867.2969 L410.5,903.1172 L371.5,859.2969 L371.5,838.0313 L361.5,828.0313 L16.5,828.0313 A0,0 0 0 0 16.5,828.0313 " fill="#FEFFDD" style="stroke:#181818;stroke-width:0.5;"/><path d="M361.5,828.0313 L361.5,838.0313 L371.5,838.0313 L361.5,828.0313 " fill="#FEFFDD" style="stroke:#181818;stroke-width:0.5;"/><text fill="#000000" font-family="sans-serif" font-size="13" lengthAdjust="spacing" textLength="334" x="22.5" y="845.0981">Creates HVertex corresponding to (1 - t) * A + t * B.</text><text fill="#000000" font-family="sans-serif" font-size="13" lengthAdjust="spacing" textLength="165" x="22.5" y="860.231">- t must be in range [0; 1]</text><text fill="#000000" font-family="sans-serif" font-size="13" lengthAdjust="spacing" textLength="326" x="22.5" y="875.3638">- h_position_, z_reciprocal_ and all scalar attributes</text><text fill="#000000" font-family="sans-serif" font-size="13" lengthAdjust="spacing" textLength="102" x="30.5" y="890.4966">are interpolated</text><text fill="#000000" font-family="sans-serif" font-size="13" font-weight="bold" lengthAdjust="spacing" textLength="53" x="136.5" y="890.4966">linearly</text><!--class HTriangle--><g id="elem_HTriangle"><rect codeLine="187" fill="#F1F1F1" height="64.2969" id="HTriangle" rx="2.5" ry="2.5" style="stroke:#181818;stroke-width:0.5;" width="173" x="455.5" y="535.5"/><ellipse cx="505.25" cy="551.5" fill="#ADD1B2" rx="11" ry="11" style="stroke:#181818;stroke-width:1.0;"/><path d="M508.2188,557.1406 Q507.6406,557.4375 507,557.5781 Q506.3594,557.7344 505.6563,557.7344 Q503.1563,557.7344 501.8281,556.0938 Q500.5156,554.4375 500.5156,551.3125 Q500.5156,548.1875 501.8281,546.5313 Q503.1563,544.875 505.6563,544.875 Q506.3594,544.875 507,545.0313 Q507.6563,545.1875 508.2188,545.4844 L508.2188,548.2031 Q507.5938,547.625 507,547.3594 Q506.4063,547.0781 505.7813,547.0781 Q504.4375,547.0781 503.75,548.1563 Q503.0625,549.2188 503.0625,551.3125 Q503.0625,553.4063 503.75,554.4844 Q504.4375,555.5469 505.7813,555.5469 Q506.4063,555.5469 507,555.2813 Q507.5938,555 508.2188,554.4219 L508.2188,557.1406 Z " fill="#000000"/><text fill="#000000" font-family="sans-serif" font-size="14" lengthAdjust="spacing" textLength="65" x="525.75" y="556.3467">HTriangle</text><line style="stroke:#181818;stroke-width:0.5;" x1="456.5" x2="627.5" y1="567.5" y2="567.5"/><ellipse cx="466.5" cy="581.1484" fill="none" rx="3" ry="3" style="stroke:#038048;stroke-width:1.0;"/><text fill="#000000" font-family="sans-serif" font-size="14" lengthAdjust="spacing" textLength="147" x="475.5" y="584.4951">HVertex[3] h_vertices</text><line style="stroke:#181818;stroke-width:0.5;" x1="456.5" x2="627.5" y1="591.7969" y2="591.7969"/></g><g id="elem_GMN41"><path d="M735,532 L735,563.5 L628.73,567.5 L735,571.5 L735,602.5313 A0,0 0 0 0 735,602.5313 L1077,602.5313 A0,0 0 0 0 1077,602.5313 L1077,542 L1067,532 L735,532 A0,0 0 0 0 735,532 " fill="#FEFFDD" style="stroke:#181818;stroke-width:0.5;"/><path d="M1067,532 L1067,542 L1077,542 L1067,532 " fill="#FEFFDD" style="stroke:#181818;stroke-width:0.5;"/><text fill="#000000" font-family="sans-serif" font-size="13" font-style="italic" lengthAdjust="spacing" textLength="61" x="741" y="549.0669">HTriangle</text><text fill="#000000" font-family="sans-serif" font-size="13" lengthAdjust="spacing" textLength="256" x="806" y="549.0669">represents Triangle after transformation</text><text fill="#000000" font-family="sans-serif" font-size="13" lengthAdjust="spacing" textLength="214" x="741" y="564.1997">in Camera's homogeneous space</text><text fill="#000000" font-family="sans-serif" font-size="13" lengthAdjust="spacing" textLength="4" x="741" y="579.3325">&#160;</text><text fill="#000000" font-family="sans-serif" font-size="13" lengthAdjust="spacing" textLength="282" x="741" y="594.4653">- HVertices are stored in descending y order</text></g><!--reverse link Triangle to Vertex--><g id="link_Triangle_Vertex"><path codeLine="201" d="M1383,1071.63 C1383,1089.87 1383,1101.48 1383,1122.99 " fill="none" id="Triangle-backto-Vertex" style="stroke:#181818;stroke-width:1.0;"/><polygon fill="none" points="1383,1059.63,1379,1065.63,1383,1071.63,1387,1065.63,1383,1059.63" style="stroke:#181818;stroke-width:1.0;"/></g><!--reverse link Object to Triangle--><g id="link_Object_Triangle"><path codeLine="202" d="M1383,868.73 C1383,910.87 1383,959.09 1383,995.33 " fill="none" id="Object-backto-Triangle" style="stroke:#181818;stroke-width:1.0;"/><polygon fill="none" points="1383,856.73,1379,862.73,1383,868.73,1387,862.73,1383,856.73" style="stroke:#181818;stroke-width:1.0;"/></g><!--reverse link World to Object--><g id="link_World_Object"><path codeLine="203" d="M1383,636.12 C1383,677.14 1383,720.36 1383,759.36 " fill="none" id="World-backto-Object" style="stroke:#181818;stroke-width:1.0;"/><polygon fill="none" points="1383,624.12,1379,630.12,1383,636.12,1387,630.12,1383,624.12" style="stroke:#181818;stroke-width:1.0;"/></g><!--link Camera to HVertex--><g id="link_Camera_HVertex"><path codeLine="204" d="M669.11,451.18 C667.69,499.47 662.47,567.03 646,624 C640.22,643.98 632.28,664.39 623.47,683.98 " fill="none" id="Camera-HVertex" style="stroke:#181818;stroke-width:1.0;stroke-dasharray:7.0,7.0;"/></g><!--link Camera to HTriangle--><g id="link_Camera_HTriangle"><path codeLine="205" d="M623.87,451.11 C603.62,479.65 580.64,512.03 564.2,535.21 " fill="none" id="Camera-HTriangle" style="stroke:#181818;stroke-width:1.0;stroke-dasharray:7.0,7.0;"/></g><!--reverse link HTriangle to HVertex--><g id="link_HTriangle_HVertex"><path codeLine="206" d="M544.1701,611.665 C545.2701,633.635 546.23,652.63 547.81,683.96 " fill="none" id="HTriangle-backto-HVertex" style="stroke:#181818;stroke-width:1.0;"/><polygon fill="none" points="543.57,599.68,539.875,605.8725,544.1701,611.665,547.865,605.4725,543.57,599.68" style="stroke:#181818;stroke-width:1.0;"/></g><!--link Renderer to World--><g id="link_Renderer_World"><path codeLine="207" d="M1078.15,259.57 C1193.73,284.3 1342.24,316.87 1347,322 C1393.82,372.49 1396.09,455.78 1391.26,510.89 " fill="none" id="Renderer-World" style="stroke:#181818;stroke-width:1.0;stroke-dasharray:7.0,7.0;"/></g><!--link Renderer to Camera--><g id="link_Renderer_Camera"><path codeLine="208" d="M887.88,262.08 C857.41,279.26 818.4,301.26 781.77,321.91 " fill="none" id="Renderer-Camera" style="stroke:#181818;stroke-width:1.0;stroke-dasharray:7.0,7.0;"/></g><!--link Camera to World--><g id="link_Camera_World"><path codeLine="209" d="M922.49,451.05 C1042.16,481.05 1178.82,515.31 1271.98,538.67 " fill="none" id="Camera-World" style="stroke:#181818;stroke-width:1.0;stroke-dasharray:7.0,7.0;"/></g><!--reverse link Application to World--><g id="link_Application_World"><path codeLine="210" d="M1034.9601,135.3821 C1040.8301,138.3621 1036.07,135.66 1042,138 C1187.99,195.61 1286.49,80.02 1390,198 C1465.86,284.46 1431.74,431.18 1404.68,510.91 " fill="none" id="Application-backto-World" style="stroke:#181818;stroke-width:1.0;"/><polygon fill="#181818" points="1024.26,129.95,1027.7994,136.2327,1034.9601,135.3821,1031.4208,129.0993,1024.26,129.95" style="stroke:#181818;stroke-width:1.0;"/></g><!--reverse link Application to Renderer--><g id="link_Application_Renderer"><path codeLine="211" d="M943,148.9 C943,169.94 943,180.39 943,197.86 " fill="none" id="Application-backto-Renderer" style="stroke:#181818;stroke-width:1.0;"/><polygon fill="#181818" points="943,136.9,939,142.9,943,148.9,947,142.9,943,136.9" style="stroke:#181818;stroke-width:1.0;"/></g><!--reverse link Application to Camera--><g id="link_Application_Camera"><path codeLine="212" d="M852.648,139.5542 C828.428,159.1342 812.07,174.44 791,198 C757.21,235.78 726.17,283.76 703.85,321.73 " fill="none" id="Application-backto-Camera" style="stroke:#181818;stroke-width:1.0;"/><polygon fill="#181818" points="861.98,132.01,854.7993,132.6714,852.648,139.5542,859.8287,138.8927,861.98,132.01" style="stroke:#181818;stroke-width:1.0;"/></g><!--SRC=[bLXjRzis4FwkNy5sHUiqjfiq6p1edW4dxQ0CwrfaNVUXA0nQecmEaYYGL5wn_xuZZwGfoqxR88ZDuv5tzzmhy-IP8h-IfxE_ZqzENf_CdoPFdcaW0FMuzoT9Nf39P49-gmJLl5cJHcYc32b9p5T25IdTtfzc_SCVVBtHvrN74W8_izLyflWzIzFNFyql6w8tN962qxMaTOeSRljaFY4V16_q6UZnbgzPawQVMAw5F2i6ZE-eblpsnosd8mmvtmYjMK4gtZ2oOlg6iORa5LKAhAWPRHIeH3Mnv-AJ0lWj7m65EsLC5th3918JrXGM2e_FecqhdWCCeh7WuD6O-W0YZcFAwCXIhWKlYEnmEI5NS3EJ84UwBqjBlg0ravJazWD9_mXP5UJ6_5qc_pbtLApKH9Ind3ID5d3oGZ9gVDXALZ3DP0tG54Jb32ocO1Qmy8PhJYl0GX7LhHnU0wE3hZOSqEH0GtilQxfcpXRxVOIMZ57zew2uD65ZDFSNe2VvtAzdh_ZS-48orOf6yLN5I2aac26ABWV_s0FSoZFq67ij8EPKMz6xWGs8OcG04XxiRHEIYqPJ04ZEtg_-XMYS4s4_rT8o71DQ5BWpmeyZHr-nDKUVcXL87UsnrShoXjh58IiLv869GSjCgygh0Qw20FO8enUdYLF-4hoBMIkkOHCjmuFc3d6Z339h5iBVN0nvH9jrnSBLziu1RcXj39oZF3YJ7IfR03-wY-TZd-UjKDpunwEqXzTevnTgT6HOb1xuPiiUj5_keErHHhKyp1I0WpnGhD7AO-W0Ec2zCzzBH02KbXqS2KIFmIScDRlzVFQ50FwQvv13WnZmXnAhdb_52XgjZ1DRoMl0wvebDlyNmoXmIImPALWkQi2NONW1t2BoxC2Rg6ZF64Vofkou35qm8N_bjAAIK0sNhpfi3Uw4AjFqGbGGlBdvwqxuNRYDoLPKK8f6JjHYx8MUZqaXEXFxUa_M89DtAAuiNf4lgKKSheeG3dbnWO6Zo0fAUZ39W7ZsXgYMvg4GcXybQXORs06eDYU3Po8uUqKOLKlJo5Pxfw_0pjfSI4ptmdWP73Kw1INr4Nb95e2KXizphxecTQSqL1UZhGIp6FbyyWiv_UBsJGQhWKzCH4HAO3kaihfB1f7W6asKruxYAw9llJNKb1gmNjPKBtVsD6Yc0A9wknbdTnRdg-EqnMcRwJRFiM8znnxNp_tCOHVEuzgTmyNpdICXFSCXJt77_38S78GUOk533rU7IhQL8anxNLk5JFfZJ9LIr6ZK1AFDfkT6r09c6IOwvVeyxawJG_65yjFq08XMraU_fsniM8uNAgu5eJuC5S1aYAlVu_AZp8paEbTzgup7HKJbaf3VJIv0j5TgDn2i1yw2cM1ngC2x4P_5nGz3FkiLlp2NRfQ-LlY0TrNgVYbPpc4I0LrmQphTKngdKtTifpGkVJLzn_H6554DTOgC1Wg40da_jgmmlUFl8FcdqwdlhviFxdIOIw2xefeBp- -spCWlkO6gx9hSd8cqAd4dBk7PjePdeOZtDGk_ZvJsh5_Ri_t5tGcW9SWFQKP3MuBAY643Ne_Z3GFDkS1qprm82JNNrc8G7hdNLKnVOIUdKOc59ytYO9Mjkqfp63oXngxk-d4nUxMQ-vvY1rScLGlT6newjW1ekbYN8sIzJOIyRwexmcvprjgXtaKE6QrOJg4b4Qxja0Y2gKtljc8MqWuk-ta9O1_8iCntgM4GNuMrOJG31jWESoXCjhIovjn765gZgE_ENvCMUzhtGnyvDnpQigbMigjw2Rl_gc4GE-rr9o5iGUUkgKN1I_2ArNhNTPPznATiQaMBJWS_blu9iUlDh-DvgEjdtz7sfz_OzgFG7VVrj9FCtgd0p_oxim7WvSS3WzQmNlPdNrSn1xDljXr-Dyl3us_MA-WcvtiZS9JrGKAKz-Nt9tuMUh6ntAKCd2oOcPwjB-u8n3IyG0TJ_nN3b7J_00aQYJ129-uL9A8tGk8UNk7LbBYH2fg4JuE84evblVizPtXW0o- -7sEA6r2sro5B_1X-wL-z0sfuUkzkk5l_1m00]--></g></svg>